<svg id="Layer_1" data-name="Layer 1" xmlns="http://www.w3.org/2000/svg" width="28.79" height="44.21" viewBox="0 0 28.79 44.21"><title>lock</title><path d="M28.9,15.07a16.52,16.52,0,0,1,3.91,2.35V10.63A10.25,10.25,0,0,0,22.58.39h-.16A10.25,10.25,0,0,0,12.19,10.63v6.79a16.52,16.52,0,0,1,3.91-2.35c.38-.16.78-.31,1.17-.44v-4a5.16,5.16,0,0,1,5.15-5.16h.16a5.17,5.17,0,0,1,5.16,5.16v4C28.12,14.76,28.52,14.91,28.9,15.07Z" transform="translate(-8.1 -0.39)"/><path d="M8.1,30.21A14.39,14.39,0,1,0,27.73,16.79,14.41,14.41,0,0,0,8.1,30.21ZM18.79,27.3a3.71,3.71,0,0,1,7.42.1,3.21,3.21,0,0,1-.06.63,3.71,3.71,0,0,1-1.68,2.51A1,1,0,0,0,24,31.61l1.1,5.22a.51.51,0,0,1-.5.62H20.38a.51.51,0,0,1-.5-.62L21,31.61a1,1,0,0,0-.45-1.08A3.67,3.67,0,0,1,18.85,28,4.32,4.32,0,0,1,18.79,27.3Z" transform="translate(-8.1 -0.39)"/></svg>