<svg xmlns="http://www.w3.org/2000/svg" xmlns:xlink="http://www.w3.org/1999/xlink" id="Layer_1" x="0" y="0" version="1.1" viewBox="0 0 100 100" xml:space="preserve" style="enable-background:new 0 0 100 100"><style type="text/css">.st0{opacity:.83;enable-background:new}.st1{fill:#95f9ef}.st2{opacity:.53;enable-background:new}.st3{fill:url(#SVGID_1_)}.st4{opacity:.7;enable-background:new}.st5{fill:url(#SVGID_2_)}.st6{fill:#fff}</style><g><g class="st0"><path d="M26.8,88L9,33.5C8,30.7,9.6,27.8,12.2,27L66.8,9.2c2.7-0.9,5.7,0.6,6.4,3.2l17.9,54.6 c0.9,2.7-0.6,5.7-3.2,6.4l-54.6,18C30.5,92.2,27.6,90.8,26.8,88z" class="st1"/></g><g class="st2"><linearGradient id="SVGID_1_" x1="4.238" x2="95.762" y1="740" y2="740" gradientTransform="matrix(1 0 0 1 0 -690)" gradientUnits="userSpaceOnUse"><stop offset="0" style="stop-color:#00e97b"/><stop offset="1" style="stop-color:#00f9d7"/></linearGradient><path d="M44.7,94.3L5.6,52c-1.9-2.1-1.8-5.3,0.3-7.3L48.1,5.4c2.1-1.9,5.3-1.8,7.2,0.3L94.4,48 c1.9,2.1,1.8,5.3-0.3,7.3L51.9,94.6C50,96.6,46.6,96.4,44.7,94.3z" class="st3"/></g><g class="st4"><linearGradient id="SVGID_2_" x1="296.575" x2="368.593" y1="-720.555" y2="-720.555" gradientTransform="matrix(0.9591 0.2829 0.2829 -0.9591 -65.1611 -734.9626)" gradientUnits="userSpaceOnUse"><stop offset="0" style="stop-color:#00dbde"/><stop offset="1" style="stop-color:#fc00ff"/></linearGradient><path d="M69.2,93.3L10.6,76.1c-2.9-0.8-4.5-3.9-3.7-6.8l17.2-58.6c0.8-2.9,3.9-4.5,6.8-3.7l58.6,17.2 c2.9,0.8,4.5,3.9,3.7,6.8L75.9,89.6C75.1,92.5,72,94.1,69.2,93.3z" class="st5"/></g><g><path d="M51.9,39.1L51.9,39.1h14.4V28.4H45.9c-1.9,0-3.7,0.3-5.3,1.1c-1.6,0.6-3.1,1.8-4.4,2.9 c-1.3,1.3-2.2,2.7-2.9,4.4c-0.4,0.7-0.6,1.6-0.8,2.4L51.9,39.1L51.9,39.1z" class="st6"/><path d="M66.9,53.3c-0.6-1.6-1.8-3.2-2.9-4.4c-1.3-1.3-2.7-2.2-4.4-2.9c-1.6-0.6-3.5-1.1-5.3-1.1h-2.4h-6H32.5 c0.2,0.9,0.5,1.7,0.8,2.6c0.6,1.6,1.8,3.2,2.9,4.4c1.3,1.3,2.7,2.2,4.4,2.9c1.6,0.8,3.5,1.1,5.3,1.1h8.4c0.5,0,0.8,0,1.1,0.2 c0.3,0.2,0.6,0.3,0.9,0.6c0.3,0.3,0.5,0.6,0.6,0.9c0.2,0.3,0.2,0.8,0.2,1.1c0,0.5,0,0.8-0.2,1.1c-0.2,0.3-0.3,0.6-0.6,0.9 c-0.3,0.3-0.6,0.5-0.9,0.6c-0.3,0.2-0.8,0.2-1.1,0.2h-20v10.8h19.8c1.9,0,3.7-0.3,5.5-1.1c1.6-0.6,3.2-1.8,4.4-2.9 c1.3-1.3,2.2-2.7,2.9-4.4c0.6-1.6,1.1-3.5,1.1-5.3C68,56.6,67.7,54.9,66.9,53.3z" class="st6"/></g></g></svg>