<svg xmlns="http://www.w3.org/2000/svg" xmlns:xlink="http://www.w3.org/1999/xlink" id="bold" x="0" y="0" version="1.1" viewBox="0 0 50 50" xml:space="preserve" style="enable-background:new 0 0 50 50"><style type="text/css">.st0{fill:#4224b8}</style><g><path d="M21.5,27.8H4.2c-1.5,0-2.8-1.2-2.8-2.8s1.2-2.8,2.8-2.8h41.5c1.5,0,2.8,1.2,2.8,2.8s-1.2,2.8-2.8,2.8H21.5" class="st0"/><path d="M21.5,42.5H4.2c-1.5,0-2.8-1.2-2.8-2.8c0-1.5,1.2-2.8,2.8-2.8h41.5c1.5,0,2.8,1.2,2.8,2.8 c0,1.5-1.2,2.8-2.8,2.8H21.5" class="st0"/><path d="M45.8,13H4.2c-1.5,0-2.8-1.2-2.8-2.8s1.2-2.8,2.8-2.8h41.5c1.5,0,2.8,1.2,2.8,2.8S47.3,13,45.8,13z" class="st0"/></g></svg>